<mxfile host="app.diagrams.net" agent="Mozilla/5.0 (Windows NT 10.0; Win64; x64; rv:132.0) Gecko/20100101 Firefox/132.0" version="24.8.6">
  <diagram name="Page-1" id="4nNioH1ttdc5iFACTjpy">
    <mxGraphModel dx="954" dy="626" grid="1" gridSize="10" guides="1" tooltips="1" connect="1" arrows="1" fold="1" page="1" pageScale="1" pageWidth="850" pageHeight="1100" math="0" shadow="0">
      <root>
        <mxCell id="0" />
        <mxCell id="1" parent="0" />
        <mxCell id="ETQeIEWVsQt0lUyBYQo2-1" value="" style="swimlane;startSize=0;" parent="1" vertex="1">
          <mxGeometry x="600" y="350" width="900" height="580" as="geometry" />
        </mxCell>
        <mxCell id="ETQeIEWVsQt0lUyBYQo2-37" value="&lt;font style=&quot;font-size: 24px;&quot;&gt;&lt;b&gt;&lt;i&gt;Tadawul Tech Trader Use case diagram&lt;/i&gt;&lt;/b&gt;&lt;/font&gt;" style="text;html=1;align=center;verticalAlign=middle;resizable=0;points=[];autosize=1;strokeColor=none;fillColor=none;" parent="ETQeIEWVsQt0lUyBYQo2-1" vertex="1">
          <mxGeometry x="160" width="470" height="40" as="geometry" />
        </mxCell>
        <mxCell id="ETQeIEWVsQt0lUyBYQo2-30" value="Generate Trend" style="ellipse;whiteSpace=wrap;html=1;fillColor=#f5f5f5;gradientColor=#b3b3b3;strokeColor=#666666;" parent="ETQeIEWVsQt0lUyBYQo2-1" vertex="1">
          <mxGeometry x="610" y="255" width="90" height="70" as="geometry" />
        </mxCell>
        <mxCell id="ETQeIEWVsQt0lUyBYQo2-44" value="System Bot" style="shape=umlActor;verticalLabelPosition=bottom;verticalAlign=top;html=1;outlineConnect=0;" parent="ETQeIEWVsQt0lUyBYQo2-1" vertex="1">
          <mxGeometry x="830" y="100" width="70" height="140" as="geometry" />
        </mxCell>
        <mxCell id="ETQeIEWVsQt0lUyBYQo2-48" value="Predict Price" style="ellipse;whiteSpace=wrap;html=1;fillColor=#f5f5f5;gradientColor=#b3b3b3;strokeColor=#666666;" parent="ETQeIEWVsQt0lUyBYQo2-1" vertex="1">
          <mxGeometry x="640" y="110" width="90" height="70" as="geometry" />
        </mxCell>
        <mxCell id="ETQeIEWVsQt0lUyBYQo2-49" value="" style="endArrow=open;endFill=1;endSize=12;html=1;rounded=0;entryX=1;entryY=0.5;entryDx=0;entryDy=0;exitX=0.5;exitY=0.5;exitDx=0;exitDy=0;exitPerimeter=0;" parent="ETQeIEWVsQt0lUyBYQo2-1" source="ETQeIEWVsQt0lUyBYQo2-44" target="ETQeIEWVsQt0lUyBYQo2-48" edge="1">
          <mxGeometry width="160" relative="1" as="geometry">
            <mxPoint x="511" y="280" as="sourcePoint" />
            <mxPoint x="779.3861418419638" y="250.00211175427455" as="targetPoint" />
          </mxGeometry>
        </mxCell>
        <mxCell id="ETQeIEWVsQt0lUyBYQo2-50" value="Extends" style="endArrow=open;endSize=12;dashed=1;html=1;rounded=0;exitX=0.5;exitY=0;exitDx=0;exitDy=0;entryX=0.5;entryY=1;entryDx=0;entryDy=0;" parent="ETQeIEWVsQt0lUyBYQo2-1" source="ETQeIEWVsQt0lUyBYQo2-30" target="ETQeIEWVsQt0lUyBYQo2-48" edge="1">
          <mxGeometry width="160" relative="1" as="geometry">
            <mxPoint x="695" y="200" as="sourcePoint" />
            <mxPoint x="615" y="230" as="targetPoint" />
          </mxGeometry>
        </mxCell>
        <mxCell id="ETQeIEWVsQt0lUyBYQo2-2" value="Sign in" style="ellipse;whiteSpace=wrap;html=1;fillColor=#f5f5f5;gradientColor=#b3b3b3;strokeColor=#666666;" parent="ETQeIEWVsQt0lUyBYQo2-1" vertex="1">
          <mxGeometry x="40" y="50" width="90" height="70" as="geometry" />
        </mxCell>
        <mxCell id="ETQeIEWVsQt0lUyBYQo2-3" value="View Profile" style="ellipse;whiteSpace=wrap;html=1;fillColor=#f5f5f5;gradientColor=#b3b3b3;strokeColor=#666666;" parent="ETQeIEWVsQt0lUyBYQo2-1" vertex="1">
          <mxGeometry x="30" y="210" width="90" height="70" as="geometry" />
        </mxCell>
        <mxCell id="ETQeIEWVsQt0lUyBYQo2-4" value="Edit Password" style="ellipse;whiteSpace=wrap;html=1;fillColor=#f5f5f5;gradientColor=#b3b3b3;strokeColor=#666666;" parent="ETQeIEWVsQt0lUyBYQo2-1" vertex="1">
          <mxGeometry x="410" y="230" width="70" height="60" as="geometry" />
        </mxCell>
        <mxCell id="ETQeIEWVsQt0lUyBYQo2-7" value="Sign out" style="ellipse;whiteSpace=wrap;html=1;fillColor=#f5f5f5;gradientColor=#b3b3b3;strokeColor=#666666;" parent="ETQeIEWVsQt0lUyBYQo2-1" vertex="1">
          <mxGeometry x="40" y="130" width="90" height="70" as="geometry" />
        </mxCell>
        <mxCell id="ETQeIEWVsQt0lUyBYQo2-8" value="Edit First Name" style="ellipse;whiteSpace=wrap;html=1;fillColor=#f5f5f5;gradientColor=#b3b3b3;strokeColor=#666666;" parent="ETQeIEWVsQt0lUyBYQo2-1" vertex="1">
          <mxGeometry x="280" y="390" width="70" height="60" as="geometry" />
        </mxCell>
        <mxCell id="ETQeIEWVsQt0lUyBYQo2-9" value="Edit Profile" style="ellipse;whiteSpace=wrap;html=1;fillColor=#f5f5f5;gradientColor=#b3b3b3;strokeColor=#666666;" parent="ETQeIEWVsQt0lUyBYQo2-1" vertex="1">
          <mxGeometry x="220" y="270" width="70" height="60" as="geometry" />
        </mxCell>
        <mxCell id="ETQeIEWVsQt0lUyBYQo2-10" value="Edit Last Name" style="ellipse;whiteSpace=wrap;html=1;fillColor=#f5f5f5;gradientColor=#b3b3b3;strokeColor=#666666;" parent="ETQeIEWVsQt0lUyBYQo2-1" vertex="1">
          <mxGeometry x="360" y="375" width="70" height="60" as="geometry" />
        </mxCell>
        <mxCell id="ETQeIEWVsQt0lUyBYQo2-11" value="Edit E-mail" style="ellipse;whiteSpace=wrap;html=1;fillColor=#f5f5f5;gradientColor=#b3b3b3;strokeColor=#666666;" parent="ETQeIEWVsQt0lUyBYQo2-1" vertex="1">
          <mxGeometry x="200" y="390" width="70" height="60" as="geometry" />
        </mxCell>
        <mxCell id="ETQeIEWVsQt0lUyBYQo2-12" value="&lt;div&gt;Sign up&lt;/div&gt;" style="ellipse;whiteSpace=wrap;html=1;fillColor=#f5f5f5;gradientColor=#b3b3b3;strokeColor=#666666;" parent="ETQeIEWVsQt0lUyBYQo2-1" vertex="1">
          <mxGeometry x="20" y="305" width="90" height="70" as="geometry" />
        </mxCell>
        <mxCell id="ETQeIEWVsQt0lUyBYQo2-17" value="Get Prediction" style="ellipse;whiteSpace=wrap;html=1;fillColor=#f5f5f5;gradientColor=#b3b3b3;strokeColor=#666666;" parent="ETQeIEWVsQt0lUyBYQo2-1" vertex="1">
          <mxGeometry x="30" y="410" width="90" height="70" as="geometry" />
        </mxCell>
        <mxCell id="ETQeIEWVsQt0lUyBYQo2-18" value="Edit Username" style="ellipse;whiteSpace=wrap;html=1;fillColor=#f5f5f5;gradientColor=#b3b3b3;strokeColor=#666666;" parent="ETQeIEWVsQt0lUyBYQo2-1" vertex="1">
          <mxGeometry x="410" y="300" width="70" height="60" as="geometry" />
        </mxCell>
        <mxCell id="ETQeIEWVsQt0lUyBYQo2-24" value="Extedns" style="endArrow=open;endSize=12;dashed=1;html=1;rounded=0;entryX=1;entryY=1;entryDx=0;entryDy=0;exitX=0;exitY=0.5;exitDx=0;exitDy=0;" parent="ETQeIEWVsQt0lUyBYQo2-1" source="ETQeIEWVsQt0lUyBYQo2-18" target="ETQeIEWVsQt0lUyBYQo2-9" edge="1">
          <mxGeometry width="160" relative="1" as="geometry">
            <mxPoint x="410" y="384.67999999999995" as="sourcePoint" />
            <mxPoint x="570" y="384.67999999999995" as="targetPoint" />
          </mxGeometry>
        </mxCell>
        <mxCell id="ETQeIEWVsQt0lUyBYQo2-25" value="Extedns" style="endArrow=open;endSize=12;dashed=1;html=1;rounded=0;entryX=1;entryY=0.5;entryDx=0;entryDy=0;exitX=0;exitY=1;exitDx=0;exitDy=0;" parent="ETQeIEWVsQt0lUyBYQo2-1" source="ETQeIEWVsQt0lUyBYQo2-4" target="ETQeIEWVsQt0lUyBYQo2-9" edge="1">
          <mxGeometry width="160" relative="1" as="geometry">
            <mxPoint x="315" y="289.99999999999994" as="sourcePoint" />
            <mxPoint x="475" y="289.99999999999994" as="targetPoint" />
          </mxGeometry>
        </mxCell>
        <mxCell id="ETQeIEWVsQt0lUyBYQo2-26" value="Extedns" style="endArrow=open;endSize=12;dashed=1;html=1;rounded=0;entryX=0.5;entryY=1;entryDx=0;entryDy=0;exitX=0.5;exitY=0;exitDx=0;exitDy=0;" parent="ETQeIEWVsQt0lUyBYQo2-1" source="ETQeIEWVsQt0lUyBYQo2-11" target="ETQeIEWVsQt0lUyBYQo2-9" edge="1">
          <mxGeometry width="160" relative="1" as="geometry">
            <mxPoint x="240" y="259.67999999999995" as="sourcePoint" />
            <mxPoint x="400" y="259.67999999999995" as="targetPoint" />
          </mxGeometry>
        </mxCell>
        <mxCell id="ETQeIEWVsQt0lUyBYQo2-27" value="Extedns" style="endArrow=open;endSize=12;dashed=1;html=1;rounded=0;entryX=0.812;entryY=0.925;entryDx=0;entryDy=0;exitX=0;exitY=0;exitDx=0;exitDy=0;entryPerimeter=0;" parent="ETQeIEWVsQt0lUyBYQo2-1" source="ETQeIEWVsQt0lUyBYQo2-10" target="ETQeIEWVsQt0lUyBYQo2-9" edge="1">
          <mxGeometry width="160" relative="1" as="geometry">
            <mxPoint x="250" y="199.67999999999995" as="sourcePoint" />
            <mxPoint x="410" y="199.67999999999995" as="targetPoint" />
          </mxGeometry>
        </mxCell>
        <mxCell id="ETQeIEWVsQt0lUyBYQo2-28" value="Extedns" style="endArrow=open;endSize=12;dashed=1;html=1;rounded=0;exitX=0;exitY=0.5;exitDx=0;exitDy=0;entryX=0.708;entryY=0.976;entryDx=0;entryDy=0;entryPerimeter=0;" parent="ETQeIEWVsQt0lUyBYQo2-1" source="ETQeIEWVsQt0lUyBYQo2-8" target="ETQeIEWVsQt0lUyBYQo2-9" edge="1">
          <mxGeometry width="160" relative="1" as="geometry">
            <mxPoint x="190" y="229.3499999999999" as="sourcePoint" />
            <mxPoint x="270" y="340" as="targetPoint" />
          </mxGeometry>
        </mxCell>
        <mxCell id="ETQeIEWVsQt0lUyBYQo2-29" value="Extedns" style="endArrow=open;endSize=12;dashed=1;html=1;rounded=0;entryX=1;entryY=0.5;entryDx=0;entryDy=0;exitX=0;exitY=0.5;exitDx=0;exitDy=0;" parent="ETQeIEWVsQt0lUyBYQo2-1" source="ETQeIEWVsQt0lUyBYQo2-9" target="ETQeIEWVsQt0lUyBYQo2-3" edge="1">
          <mxGeometry width="160" relative="1" as="geometry">
            <mxPoint x="160" y="269.3499999999999" as="sourcePoint" />
            <mxPoint x="320" y="269.3499999999999" as="targetPoint" />
          </mxGeometry>
        </mxCell>
        <mxCell id="ETQeIEWVsQt0lUyBYQo2-38" value="User&lt;br&gt;" style="shape=umlActor;verticalLabelPosition=bottom;verticalAlign=top;html=1;outlineConnect=0;" parent="ETQeIEWVsQt0lUyBYQo2-1" vertex="1">
          <mxGeometry x="-280" y="200" width="70" height="140" as="geometry" />
        </mxCell>
        <mxCell id="ETQeIEWVsQt0lUyBYQo2-40" value="" style="endArrow=open;endFill=1;endSize=12;html=1;rounded=0;exitX=0.5;exitY=0.5;exitDx=0;exitDy=0;exitPerimeter=0;entryX=0;entryY=0.5;entryDx=0;entryDy=0;" parent="ETQeIEWVsQt0lUyBYQo2-1" source="ETQeIEWVsQt0lUyBYQo2-38" target="ETQeIEWVsQt0lUyBYQo2-3" edge="1">
          <mxGeometry width="160" relative="1" as="geometry">
            <mxPoint x="-110" y="373" as="sourcePoint" />
            <mxPoint x="39" y="340" as="targetPoint" />
          </mxGeometry>
        </mxCell>
        <mxCell id="ETQeIEWVsQt0lUyBYQo2-42" value="" style="endArrow=open;endFill=1;endSize=12;html=1;rounded=0;exitX=0.5;exitY=0.5;exitDx=0;exitDy=0;exitPerimeter=0;entryX=0.029;entryY=0.298;entryDx=0;entryDy=0;entryPerimeter=0;" parent="ETQeIEWVsQt0lUyBYQo2-1" source="ETQeIEWVsQt0lUyBYQo2-38" target="ETQeIEWVsQt0lUyBYQo2-12" edge="1">
          <mxGeometry width="160" relative="1" as="geometry">
            <mxPoint x="-120" y="611.5" as="sourcePoint" />
            <mxPoint x="29" y="578.5" as="targetPoint" />
          </mxGeometry>
        </mxCell>
        <mxCell id="ETQeIEWVsQt0lUyBYQo2-46" value="" style="endArrow=open;endFill=1;endSize=12;html=1;rounded=0;exitX=0.5;exitY=0.5;exitDx=0;exitDy=0;exitPerimeter=0;entryX=0;entryY=0;entryDx=0;entryDy=0;" parent="ETQeIEWVsQt0lUyBYQo2-1" source="ETQeIEWVsQt0lUyBYQo2-38" target="ETQeIEWVsQt0lUyBYQo2-17" edge="1">
          <mxGeometry width="160" relative="1" as="geometry">
            <mxPoint x="-205" y="270" as="sourcePoint" />
            <mxPoint x="105" y="655" as="targetPoint" />
          </mxGeometry>
        </mxCell>
        <mxCell id="ETQeIEWVsQt0lUyBYQo2-47" value="" style="endArrow=open;endFill=1;endSize=12;html=1;rounded=0;exitX=0.5;exitY=0.5;exitDx=0;exitDy=0;exitPerimeter=0;entryX=0;entryY=0.5;entryDx=0;entryDy=0;" parent="ETQeIEWVsQt0lUyBYQo2-1" source="ETQeIEWVsQt0lUyBYQo2-38" target="ETQeIEWVsQt0lUyBYQo2-2" edge="1">
          <mxGeometry width="160" relative="1" as="geometry">
            <mxPoint x="-210" y="213" as="sourcePoint" />
            <mxPoint x="-61" y="180" as="targetPoint" />
          </mxGeometry>
        </mxCell>
        <mxCell id="ETQeIEWVsQt0lUyBYQo2-56" value="" style="endArrow=open;endFill=1;endSize=12;html=1;rounded=0;exitX=0.5;exitY=0.5;exitDx=0;exitDy=0;exitPerimeter=0;entryX=0;entryY=0.5;entryDx=0;entryDy=0;" parent="ETQeIEWVsQt0lUyBYQo2-1" source="ETQeIEWVsQt0lUyBYQo2-38" target="ETQeIEWVsQt0lUyBYQo2-7" edge="1">
          <mxGeometry width="160" relative="1" as="geometry">
            <mxPoint x="-200" y="223" as="sourcePoint" />
            <mxPoint x="-51" y="190" as="targetPoint" />
          </mxGeometry>
        </mxCell>
      </root>
    </mxGraphModel>
  </diagram>
</mxfile>
